<svg width="37" height="31" viewBox="0 0 37 31" fill="none" xmlns="http://www.w3.org/2000/svg">
<path d="M3.08333 7.7436C3.08333 7.03319 3.77092 6.45839 4.61729 6.45839L16.966 6.45839C17.3729 6.45839 17.763 6.5938 18.0507 6.83482C18.3384 7.07584 18.5 7.40274 18.5 7.7436C18.5 8.08446 18.3384 8.41136 18.0507 8.65238C17.763 8.8934 17.3729 9.02881 16.966 9.02881L4.61729 9.02881C3.76938 9.02881 3.08333 8.45402 3.08333 7.7436Z" fill="white"/>
<path d="M3.08319 15.5002C3.08319 14.7898 3.77078 14.215 4.61715 14.215L32.3826 14.215C32.7894 14.215 33.1796 14.3504 33.4672 14.5914C33.7549 14.8324 33.9165 15.1593 33.9165 15.5002C33.9165 15.8411 33.7549 16.1679 33.4672 16.409C33.1796 16.65 32.7894 16.7854 32.3826 16.7854L4.61715 16.7854C3.76924 16.7854 3.08319 16.2093 3.08319 15.5002Z" fill="white"/>
<path d="M4.61716 21.9713C4.21033 21.9713 3.82016 22.1067 3.53249 22.3478C3.24481 22.5888 3.0832 22.9157 3.0832 23.2565C3.0832 23.5974 3.24481 23.9243 3.53249 24.1653C3.82016 24.4063 4.21033 24.5417 4.61716 24.5417L23.1326 24.5417C23.334 24.5417 23.5335 24.5085 23.7196 24.4439C23.9057 24.3793 24.0748 24.2847 24.2172 24.1653C24.3597 24.046 24.4727 23.9043 24.5498 23.7484C24.6269 23.5924 24.6665 23.4253 24.6665 23.2565C24.6665 23.0878 24.6269 22.9206 24.5498 22.7647C24.4727 22.6088 24.3597 22.4671 24.2172 22.3478C24.0748 22.2284 23.9057 22.1337 23.7196 22.0692C23.5335 22.0046 23.334 21.9713 23.1326 21.9713L4.61716 21.9713Z" fill="white"/>
</svg>
